<svg width="22" height="24" viewBox="0 0 22 24" fill="none" xmlns="http://www.w3.org/2000/svg"><path d="M5.60687 21H1.25313V6.97968H5.60687V21ZM3.42766 5.06719C2.03547 5.06719 0.90625 3.91406 0.90625 2.52187C0.90625 1.85316 1.1719 1.21183 1.64475 0.738972C2.11761 0.266116 2.75894 0.000469208 3.42766 0.000469208C4.09637 0.000469208 4.7377 0.266116 5.21056 0.738972C5.68341 1.21183 5.94906 1.85316 5.94906 2.52187C5.94906 3.91406 4.81938 5.06719 3.42766 5.06719ZM21.9016 21H17.5572V14.175C17.5572 12.5484 17.5244 10.4625 15.2936 10.4625C13.03 10.4625 12.6831 12.2297 12.6831 14.0578V21H8.33406V6.97968H12.5097V8.89218H12.5706C13.1519 7.79062 14.5717 6.62812 16.69 6.62812C21.0963 6.62812 21.9062 9.52968 21.9062 13.2984V21H21.9016Z" fill="black"/></svg>
